<svg width="300" height="300" viewBox="0 0 200 230" fill="none" xmlns="http://www.w3.org/2000/svg">
               <path d="M8.328 6.88C8.328 8.11733 8.28533 9.76 8.2 11.808L8.136 15.968C8.136 20.0213 8.43467 23.4133 9.032 26.144C9.88533 29.984 11.1653 32.9493 12.872 35.04C14.4507 36.8747 16.392 37.792 18.696 37.792C20.488 37.792 22.088 37.2587 23.496 36.192C24.904 35.0827 25.992 33.7173 26.76 32.096C28.04 29.4507 28.68 26.1867 28.68 22.304C28.68 19.9573 28.5307 17.184 28.232 13.984C27.976 10.4 27.848 7.712 27.848 5.92C27.848 4.98133 28.4027 4.384 29.512 4.128C30.6213 3.82933 31.7733 3.68 32.968 3.68C33.3947 3.68 33.8853 3.95733 34.44 4.512C34.9947 5.06666 35.272 5.664 35.272 6.304C35.272 7.584 35.208 8.8 35.08 9.952C34.9947 11.232 34.952 12.128 34.952 12.64C34.952 14.2613 35.0373 16.5227 35.208 19.424C35.2507 20.1493 35.2933 21.024 35.336 22.048C35.3787 23.072 35.4 24.2453 35.4 25.568C35.4 28.4693 34.696 31.3707 33.288 34.272C31.9227 37.1307 30.0027 39.4987 27.528 41.376C25.0533 43.2107 22.2587 44.128 19.144 44.128C14.3653 44.128 10.632 42.592 7.944 39.52C5.256 36.4053 3.42133 32.3947 2.44 27.488C1.88533 24.672 1.52267 21.728 1.352 18.656C1.224 15.584 1.16 11.4667 1.16 6.304C1.16 5.62133 1.48 4.98133 2.12 4.384C2.80267 3.78667 3.528 3.488 4.296 3.488C6.984 3.488 8.328 4.61867 8.328 6.88ZM72.0135 39.072C72.2268 39.1573 72.5682 39.264 73.0375 39.392C73.5068 39.52 73.8482 39.648 74.0615 39.776C74.2748 39.904 74.3815 40.096 74.3815 40.352C74.4242 41.376 74.0402 42.2293 73.2295 42.912C72.4615 43.552 71.5442 43.872 70.4775 43.872C68.8135 43.872 67.5122 43.424 66.5735 42.528C65.6348 41.632 64.9522 40.2667 64.5255 38.432C64.3548 37.7067 64.2695 36.704 64.2695 35.424C64.2695 34.6987 64.3122 33.5253 64.3975 31.904C64.4828 30.1973 64.5255 28.832 64.5255 27.808C64.5255 26.3147 64.0988 25.0133 63.2455 23.904C62.4348 22.752 61.2828 22.176 59.7895 22.176C58.8935 22.176 57.9548 22.4533 56.9735 23.008C55.9922 23.52 55.3095 24.16 54.9255 24.928C54.2855 26.1653 53.8375 27.5093 53.5815 28.96C53.1122 31.52 52.8775 34.1867 52.8775 36.96C52.8775 38.2827 52.8988 39.3067 52.9415 40.032C52.9415 40.2027 52.9415 40.544 52.9415 41.056C52.9842 41.5253 52.9415 41.9733 52.8135 42.4C52.7282 42.784 52.5575 43.1467 52.3015 43.488C52.0882 43.7013 51.7468 43.872 51.2775 44C50.8508 44.1707 50.4455 44.256 50.0615 44.256C49.4642 44.256 48.7175 44 47.8215 43.488C46.9255 42.976 46.4135 42.4 46.2855 41.76L46.2215 40.672C46.2215 40.288 46.2642 39.84 46.3495 39.328C46.8615 36.3413 47.1175 33.7387 47.1175 31.52C47.1175 30.5387 47.0962 29.7707 47.0535 29.216L46.9895 26.208C46.9895 25.184 46.7335 24.2027 46.2215 23.264C45.7095 22.2827 45.1122 21.792 44.4295 21.792C44.2162 21.792 43.9175 21.8773 43.5335 22.048C43.1495 22.176 42.8295 22.24 42.5735 22.24C42.1468 22.24 41.6775 22.0267 41.1655 21.6C40.6962 21.1733 40.4615 20.7253 40.4615 20.256C40.4615 19.36 40.7602 18.6347 41.3575 18.08C41.9975 17.568 42.6162 17.1627 43.2135 16.864C43.8535 16.5653 44.5788 16.416 45.3895 16.416C46.0722 16.416 46.6268 16.48 47.0535 16.608C47.4802 16.736 48.0562 17.0133 48.7815 17.44C49.1655 17.6533 49.6135 18.1227 50.1255 18.848C50.6375 19.5733 51.0642 20.5973 51.4055 21.92C52.5148 19.872 53.8802 18.4427 55.5015 17.632C57.1655 16.7787 59.2775 16.352 61.8375 16.352C62.8188 16.352 63.8642 16.672 64.9735 17.312C66.1255 17.952 67.1068 18.6987 67.9175 19.552C68.6855 20.4907 69.3255 21.664 69.8375 23.072C70.3495 24.4373 70.6055 25.6747 70.6055 26.784C70.6055 27.424 70.5628 28.4693 70.4775 29.92C70.3495 31.072 70.2855 32.288 70.2855 33.568C70.2855 36.5547 70.8615 38.3893 72.0135 39.072ZM82.281 2.912C83.7743 3.04 85.0757 3.44533 86.185 4.128C87.2943 4.768 87.849 5.74933 87.849 7.072C87.849 8.05333 87.3797 8.84267 86.441 9.44C85.545 9.99467 84.457 10.272 83.177 10.272C81.9397 10.272 81.0863 9.952 80.617 9.312C80.1477 8.672 79.913 8.01066 79.913 7.328C79.913 6.048 80.041 4.98133 80.297 4.128C80.5957 3.27467 81.257 2.86933 82.281 2.912ZM87.401 31.264V33.12C87.401 34.784 87.4437 36.3627 87.529 37.856C87.657 39.3067 87.8063 40.7787 87.977 42.272C87.9343 42.6987 87.6143 43.1467 87.017 43.616C86.4197 44.0427 85.8863 44.256 85.417 44.256C84.6063 44.256 83.7743 44.1067 82.921 43.808C82.1103 43.4667 81.6197 43.0613 81.449 42.592C81.193 41.2267 81.065 40.0107 81.065 38.944C81.065 35.4453 80.9583 31.52 80.745 27.168C80.5743 23.328 80.489 20.64 80.489 19.104C80.489 18.336 80.873 17.6747 81.641 17.12C82.409 16.5653 83.2197 16.288 84.073 16.288C85.3103 16.288 86.1637 16.5653 86.633 17.12C87.145 17.6747 87.401 18.5493 87.401 19.744V31.264ZM95.392 21.728C94.7947 21.6427 94.304 21.408 93.92 21.024C93.5787 20.5973 93.408 20.0853 93.408 19.488C93.408 18.72 93.7067 18.08 94.304 17.568C94.432 17.44 94.6453 17.3333 94.944 17.248C95.2427 17.12 95.4773 17.0133 95.648 16.928C96.5867 16.6293 97.184 16.3947 97.44 16.224C98.4213 15.6267 99.0827 14.6453 99.424 13.28C99.7653 11.6587 99.9787 10.5493 100.064 9.952C100.149 9.01333 100.448 8.30933 100.96 7.84C101.515 7.328 102.197 7.072 103.008 7.072C104.075 7.072 104.821 7.34933 105.248 7.904C105.675 8.45867 105.888 9.48267 105.888 10.976C105.888 12.9387 105.419 14.7947 104.48 16.544C105.077 16.544 106.059 16.5013 107.424 16.416C109.472 16.3307 110.901 16.288 111.712 16.288C112.437 16.288 113.056 16.48 113.568 16.864C114.123 17.2053 114.4 17.7173 114.4 18.4C114.4 20.0213 113.653 20.9813 112.16 21.28C110.795 21.664 108.32 21.8987 104.736 21.984C104.437 26.1653 104.288 29.472 104.288 31.904C104.288 33.3973 104.352 34.464 104.48 35.104C104.736 36.4267 105.163 37.408 105.76 38.048C106.4 38.6453 107.339 38.944 108.576 38.944C109.173 38.944 110.069 38.7947 111.264 38.496C111.989 38.2827 112.565 38.176 112.992 38.176C113.547 38.176 113.973 38.368 114.272 38.752C114.571 39.136 114.72 39.648 114.72 40.288C114.72 41.44 113.973 42.4 112.48 43.168C110.987 43.8933 109.216 44.256 107.168 44.256C105.888 44.256 104.629 43.9573 103.392 43.36C102.155 42.72 101.109 41.952 100.256 41.056C100.085 40.9707 99.8293 40.5013 99.488 39.648C99.1893 38.7947 98.8907 37.856 98.592 36.832C98.464 36.32 98.4 35.0827 98.4 33.12C98.4 31.2427 98.528 28 98.784 23.392L98.848 21.984C98.5493 21.984 97.9947 21.9627 97.184 21.92C96.3733 21.8347 95.776 21.7707 95.392 21.728ZM118.69 29.344C118.69 26.7413 119.266 24.5867 120.418 22.88C121.57 21.1307 123.17 19.488 125.218 17.952C125.815 17.5253 126.818 17.1627 128.226 16.864C129.634 16.5227 130.871 16.352 131.938 16.352C133.218 16.352 134.562 16.6293 135.97 17.184C137.42 17.696 138.594 18.2933 139.49 18.976C141.068 20.128 142.156 21.472 142.754 23.008C143.351 24.5013 143.65 26.2933 143.65 28.384C143.65 29.28 143.138 30.1547 142.114 31.008C141.132 31.8187 140.066 32.224 138.914 32.224L136.482 32.16C135.244 32.16 133.474 32.2027 131.17 32.288L129.826 32.352C128.887 32.4373 128.183 32.48 127.714 32.48C127.031 32.48 126.092 32.3947 124.898 32.224C125.068 34.2293 125.815 35.808 127.138 36.96C128.46 38.0693 129.89 38.624 131.426 38.624C134.114 38.624 135.991 38.0907 137.058 37.024C137.954 36.384 138.551 35.9787 138.85 35.808C139.148 35.6373 139.618 35.552 140.258 35.552C140.94 35.552 141.538 35.872 142.05 36.512C142.562 37.152 142.818 37.792 142.818 38.432C142.818 39.1573 142.37 39.904 141.474 40.672C140.62 41.3973 139.447 42.1653 137.954 42.976C137.143 43.3173 136.034 43.616 134.626 43.872C133.218 44.128 132.044 44.256 131.106 44.256C129.612 44.256 127.948 43.8293 126.114 42.976C124.279 42.08 122.914 41.0987 122.018 40.032C121.122 38.9653 120.332 37.4507 119.65 35.488C119.01 33.5253 118.69 31.4773 118.69 29.344ZM131.426 27.616C134.455 27.616 136.674 27.5093 138.082 27.296C137.996 26.0587 137.612 25.056 136.93 24.288C136.247 23.4773 135.308 22.7947 134.114 22.24C133.73 22.0693 133.388 21.9413 133.09 21.856C132.791 21.7707 132.45 21.728 132.066 21.728C130.103 21.728 128.439 22.2613 127.074 23.328C125.751 24.3947 124.962 25.76 124.706 27.424C126.839 27.552 129.079 27.616 131.426 27.616ZM175.241 3.936C175.241 4.36266 175.177 4.896 175.049 5.536C175.006 5.792 174.963 6.06933 174.921 6.368C174.878 6.66667 174.835 7.02933 174.793 7.456C174.409 11.296 174.217 16.0533 174.217 21.728C174.217 27.104 174.451 31.0933 174.921 33.696C175.39 36.2987 176.115 37.856 177.097 38.368L178.312 38.88C178.953 39.0933 179.422 39.328 179.721 39.584C180.062 39.84 180.233 40.2667 180.233 40.864C180.233 41.7173 179.785 42.464 178.889 43.104C177.993 43.7013 177.011 44 175.945 44C174.835 44 173.747 43.552 172.681 42.656C171.614 41.7173 170.739 40.544 170.057 39.136C169.331 40.672 168.051 41.9093 166.217 42.848C164.382 43.744 162.633 44.192 160.969 44.192C159.475 44.192 158.174 44 157.065 43.616C155.955 43.1893 154.803 42.5493 153.609 41.696C152.158 40.672 151.049 39.3707 150.281 37.792C149.555 36.2133 149.193 34.4853 149.193 32.608C149.193 30.7307 149.555 28.7467 150.281 26.656C151.006 24.5227 151.838 22.7733 152.777 21.408C153.886 19.8293 155.358 18.656 157.193 17.888C159.027 17.0773 160.926 16.672 162.889 16.672C163.998 16.672 164.958 16.8853 165.769 17.312C166.579 17.696 167.411 18.2507 168.265 18.976C168.265 16.8427 168.222 15.0507 168.137 13.6C168.094 13.216 168.073 12.768 168.073 12.256C168.073 8.58667 168.371 5.68533 168.969 3.552C169.438 1.76 170.569 0.863998 172.361 0.863998C173.342 0.863998 174.067 1.07733 174.537 1.504C175.006 1.93066 175.241 2.74133 175.241 3.936ZM155.401 32.48C155.401 34.656 156.105 36.32 157.513 37.472C158.153 38.0693 158.686 38.4747 159.113 38.688C159.539 38.9013 160.073 39.008 160.713 39.008C161.95 39.008 163.123 38.6667 164.233 37.984C165.385 37.2587 166.281 36.32 166.921 35.168C167.603 34.016 167.945 32.7787 167.945 31.456L167.881 25.12C166.985 24.096 166.153 23.392 165.385 23.008C164.659 22.5813 163.891 22.368 163.081 22.368C160.35 22.368 158.473 23.4133 157.449 25.504C156.894 26.4853 156.403 27.5947 155.977 28.832C155.593 30.0693 155.401 31.2853 155.401 32.48ZM17.416 106.536C15.752 106.536 14.344 106.493 13.192 106.408C12.0827 106.28 10.6107 106.088 8.776 105.832L8.712 112.552C8.66933 113.704 8.648 115.347 8.648 117.48C8.648 118.589 8.328 119.464 7.688 120.104C7.09067 120.701 6.408 121 5.64 121C4.232 121 3.18667 120.829 2.504 120.488C1.82133 120.104 1.48 119.443 1.48 118.504C1.48 117.267 1.58667 115.517 1.8 113.256C2.26933 108.392 2.504 103.4 2.504 98.28C2.504 93.5013 2.35467 89 2.056 84.776C2.09867 84.1787 2.39733 83.496 2.952 82.728C3.54933 81.96 4.296 81.5333 5.192 81.448C6.17333 81.448 7.73067 81.2773 9.864 80.936C12.0827 80.5947 13.768 80.424 14.92 80.424C18.4187 80.424 21.128 80.7653 23.048 81.448C25.0107 82.1307 26.9733 83.2613 28.936 84.84C31.0693 88.168 32.136 90.5147 32.136 91.88C32.136 94.7387 31.56 97.2773 30.408 99.496C29.256 101.715 27.5707 103.443 25.352 104.68C23.1333 105.917 20.488 106.536 17.416 106.536ZM15.944 85.864C14.5787 85.864 13.384 85.9493 12.36 86.12C11.3787 86.248 10.184 86.4827 8.776 86.824C8.94667 90.7493 9.032 93.608 9.032 95.4C9.032 97.2347 8.968 98.7707 8.84 100.008C10.6747 100.392 12.1253 100.648 13.192 100.776C14.2587 100.861 15.4533 100.904 16.776 100.904C19.9333 100.904 22.152 100.093 23.432 98.472C24.7547 96.808 25.416 94.888 25.416 92.712C25.416 92.072 25.224 91.2827 24.84 90.344C24.456 89.4053 24.1147 88.7867 23.816 88.488C22.664 87.464 21.5333 86.7813 20.424 86.44C19.3573 86.056 17.864 85.864 15.944 85.864ZM46.4265 118.44C46.4265 119.165 46.1492 119.805 45.5945 120.36C45.0398 120.915 44.3572 121.192 43.5465 121.192C42.2665 121.192 41.3278 120.957 40.7305 120.488C40.1332 119.976 39.8345 119.059 39.8345 117.736C39.8345 116.157 39.7918 114.088 39.7065 111.528C39.6212 109.395 39.5785 107.603 39.5785 106.152C39.5785 105.469 39.6212 104.573 39.7065 103.464C39.7918 102.44 39.8345 101.672 39.8345 101.16C39.7065 100.349 39.3865 99.688 38.8745 99.176C38.3625 98.6213 37.7012 98.344 36.8905 98.344C36.5065 98.344 36.1865 98.1733 35.9305 97.832C35.6745 97.448 35.5465 97.064 35.5465 96.68C35.5465 95.6987 35.9305 94.952 36.6985 94.44C37.5092 93.928 38.4692 93.672 39.5785 93.672C41.8825 93.672 43.4825 95.0373 44.3785 97.768C45.4878 96.488 46.7465 95.464 48.1545 94.696C49.6052 93.8853 50.9918 93.48 52.3145 93.48C53.8932 93.48 55.3225 93.9067 56.6025 94.76C57.9252 95.6133 58.5865 96.7653 58.5865 98.216C58.5865 99.0267 58.2238 99.8587 57.4985 100.712C56.8158 101.565 56.1118 101.992 55.3865 101.992C55.0025 101.992 54.6612 101.907 54.3625 101.736C54.1065 101.523 53.7865 101.224 53.4025 100.84C52.9758 100.413 52.6132 100.115 52.3145 99.944C52.0158 99.7307 51.6745 99.624 51.2905 99.624C50.6078 99.624 49.9678 99.7307 49.3705 99.944C48.7732 100.157 48.3678 100.413 48.1545 100.712C47.4718 101.779 46.9598 102.739 46.6185 103.592C46.3198 104.445 46.1705 105.363 46.1705 106.344C46.1705 107.069 46.1492 107.645 46.1065 108.072L46.0425 111.72C46.0425 112.275 46.0638 112.893 46.1065 113.576C46.1492 114.259 46.1918 114.771 46.2345 115.112C46.3625 116.264 46.4265 117.373 46.4265 118.44ZM65.656 79.912C67.1493 80.04 68.4507 80.4453 69.56 81.128C70.6693 81.768 71.224 82.7493 71.224 84.072C71.224 85.0533 70.7547 85.8427 69.816 86.44C68.92 86.9947 67.832 87.272 66.552 87.272C65.3147 87.272 64.4613 86.952 63.992 86.312C63.5227 85.672 63.288 85.0107 63.288 84.328C63.288 83.048 63.416 81.9813 63.672 81.128C63.9707 80.2747 64.632 79.8693 65.656 79.912ZM70.776 108.264V110.12C70.776 111.784 70.8187 113.363 70.904 114.856C71.032 116.307 71.1813 117.779 71.352 119.272C71.3093 119.699 70.9893 120.147 70.392 120.616C69.7947 121.043 69.2613 121.256 68.792 121.256C67.9813 121.256 67.1493 121.107 66.296 120.808C65.4853 120.467 64.9947 120.061 64.824 119.592C64.568 118.227 64.44 117.011 64.44 115.944C64.44 112.445 64.3333 108.52 64.12 104.168C63.9493 100.328 63.864 97.64 63.864 96.104C63.864 95.336 64.248 94.6747 65.016 94.12C65.784 93.5653 66.5947 93.288 67.448 93.288C68.6853 93.288 69.5387 93.5653 70.008 94.12C70.52 94.6747 70.776 95.5493 70.776 96.744V108.264ZM93.615 104.552C93.743 104.211 94.191 102.973 94.959 100.84C95.7697 98.7067 96.5163 97.0853 97.199 95.976C98.3083 94.2267 99.2897 93.352 100.143 93.352C101.338 93.352 102.255 93.5867 102.895 94.056C103.535 94.4827 103.855 95.1013 103.855 95.912C103.855 96.296 103.684 96.8293 103.343 97.512C103.044 98.1947 102.874 98.6 102.831 98.728C101.124 102.483 99.5883 106.515 98.223 110.824L96.879 115.816C96.367 117.437 95.4923 118.76 94.255 119.784C93.0177 120.765 91.567 121.256 89.903 121.256C88.4097 121.256 87.023 120.573 85.743 119.208C84.975 118.013 84.1643 116.499 83.311 114.664C82.5003 112.829 81.7963 111.037 81.199 109.288L78.959 102.568C78.4897 101.245 78.1057 100.115 77.807 99.176C77.551 98.2373 77.423 97.384 77.423 96.616C77.3803 95.72 77.6363 94.9947 78.191 94.44C78.7457 93.8853 79.5137 93.608 80.495 93.608C81.6043 93.608 82.3937 93.8427 82.863 94.312C83.3323 94.7387 83.759 95.4213 84.143 96.36C84.3137 97.3413 84.783 99.3467 85.551 102.376L85.999 104.168C86.383 105.619 86.8737 107.091 87.471 108.584C88.0683 110.077 88.6657 111.507 89.263 112.872C89.1777 112.659 89.4763 113.363 90.159 114.984C90.5857 113.747 91.0763 112.232 91.631 110.44L93.615 104.552ZM132.712 121.256C131.261 121.256 130.152 121.043 129.384 120.616C128.616 120.147 127.784 119.293 126.888 118.056C125.779 119.037 124.115 119.827 121.896 120.424C119.72 121.021 117.843 121.32 116.264 121.32C113.661 121.32 111.549 120.616 109.928 119.208C108.349 117.757 107.56 115.645 107.56 112.872C107.56 111.677 107.88 110.589 108.52 109.608C109.203 108.584 110.077 107.688 111.144 106.92C112.339 106.109 113.747 105.469 115.368 105C117.032 104.531 118.547 104.296 119.912 104.296C122.216 104.296 124.264 104.509 126.056 104.936V104.872C126.056 102.568 125.48 100.989 124.328 100.136C123.219 99.24 121.427 98.792 118.952 98.792C117.373 98.792 116.008 99.496 114.856 100.904C114.429 101.459 113.533 101.736 112.168 101.736C111.485 101.736 110.973 101.459 110.632 100.904C110.333 100.307 110.184 99.7093 110.184 99.112C110.184 97.8747 110.696 96.808 111.72 95.912C112.787 95.016 114.067 94.3547 115.56 93.928C117.053 93.4587 118.44 93.224 119.72 93.224C120.957 93.224 122.429 93.48 124.136 93.992C125.843 94.504 127.229 95.1867 128.296 96.04C129.576 97.1493 130.557 98.4507 131.24 99.944C131.965 101.395 132.328 102.995 132.328 104.744C132.328 105.299 132.285 106.131 132.2 107.24C132.115 108.52 132.072 109.565 132.072 110.376C132.072 110.76 132.029 111.251 131.944 111.848C131.859 112.616 131.816 113.256 131.816 113.768C131.816 114.323 131.987 114.856 132.328 115.368C132.669 115.88 133.139 116.307 133.736 116.648C134.291 116.947 134.653 117.267 134.824 117.608C134.995 117.949 135.08 118.333 135.08 118.76C135.08 119.187 134.803 119.72 134.248 120.36C133.736 120.957 133.224 121.256 132.712 121.256ZM119.912 109.032C118.248 109.032 116.776 109.352 115.496 109.992C114.216 110.632 113.576 111.763 113.576 113.384C113.576 114.195 113.853 114.877 114.408 115.432C115.005 115.987 115.645 116.264 116.328 116.264C118.163 116.264 119.699 116.072 120.936 115.688C122.173 115.304 123.667 114.6 125.416 113.576C125.629 112.893 125.757 111.933 125.8 110.696C125.8 110.227 125.821 109.864 125.864 109.608C123.56 109.224 121.576 109.032 119.912 109.032ZM140.02 98.856C139.423 98.7707 138.932 98.5147 138.548 98.088C138.207 97.6613 138.036 97.1493 138.036 96.552C138.036 96.2533 138.1 95.9333 138.228 95.592C138.399 95.2507 138.633 94.952 138.932 94.696C139.487 94.2267 140.233 93.7787 141.172 93.352C142.153 92.968 142.857 92.4987 143.284 91.944C143.711 91.3893 143.924 90.344 143.924 88.808C143.924 88.168 143.881 87.6133 143.796 87.144C143.753 86.6747 143.732 86.312 143.732 86.056C143.732 85.1173 144.073 84.4133 144.756 83.944C145.439 83.4747 146.228 83.24 147.124 83.24C148.233 83.24 148.98 83.5173 149.364 84.072C149.791 84.6267 150.004 85.6507 150.004 87.144C150.004 88.5947 149.94 89.8533 149.812 90.92C149.684 91.944 149.407 92.8613 148.98 93.672C149.577 93.672 150.559 93.6293 151.924 93.544C153.801 93.4587 155.103 93.416 155.828 93.416C156.553 93.416 157.193 93.608 157.748 93.992C158.303 94.3333 158.58 94.824 158.58 95.464C158.58 96.36 158.388 97.0213 158.004 97.448C157.62 97.8747 157.065 98.152 156.34 98.28C154.591 98.7493 152.116 99.0267 148.916 99.112C148.831 100.776 148.788 102.589 148.788 104.552C148.788 107.837 148.98 110.355 149.364 112.104C149.62 113.469 150.047 114.472 150.644 115.112C151.284 115.709 152.223 116.008 153.46 116.008C154.1 116.008 154.612 115.923 154.996 115.752C155.423 115.581 155.657 115.475 155.7 115.432C156.212 115.133 156.681 114.984 157.108 114.984C157.705 114.984 158.132 115.176 158.388 115.56C158.687 115.944 158.836 116.456 158.836 117.096C158.836 118.291 158.196 119.293 156.916 120.104C155.636 120.872 153.993 121.256 151.988 121.256C149.727 121.256 147.807 120.595 146.228 119.272C144.692 117.907 143.775 116.115 143.476 113.896C143.049 111.891 142.836 109.075 142.836 105.448C142.836 103.869 142.921 101.757 143.092 99.112L140.02 98.856ZM163.443 106.536C163.443 105 163.72 103.571 164.275 102.248C164.829 100.883 165.64 99.4747 166.707 98.024C167.773 96.5733 169.245 95.4427 171.123 94.632C173 93.7787 175.048 93.352 177.267 93.352C178.973 93.352 180.616 93.7147 182.195 94.44C183.816 95.1227 185.267 95.976 186.547 97C186.717 97.2987 187.016 97.8533 187.443 98.664C187.869 99.432 188.168 100.136 188.339 100.776C188.552 101.416 188.659 102.077 188.659 102.76C188.659 105.619 187.613 107.539 185.523 108.52C183.432 109.459 180.787 109.928 177.587 109.928C174.387 109.928 171.784 109.715 169.779 109.288C169.864 110.099 170.077 110.909 170.419 111.72C170.76 112.531 171.165 113.149 171.635 113.576C172.488 114.387 173.32 114.92 174.131 115.176C174.984 115.389 176.115 115.496 177.523 115.496C179.656 115.496 181.32 115.091 182.515 114.28C183.624 113.555 184.477 113.192 185.075 113.192C185.885 113.192 186.504 113.448 186.931 113.96C187.357 114.429 187.571 115.048 187.571 115.816C187.571 117.437 186.525 118.76 184.435 119.784C182.387 120.808 180.061 121.32 177.458 121.32C175.411 121.32 173.384 120.957 171.379 120.232C169.373 119.507 167.773 118.483 166.579 117.16C165.768 115.795 165.043 114.131 164.403 112.168C163.763 110.205 163.443 108.328 163.443 106.536ZM177.523 98.6C176.584 98.6 175.603 98.7707 174.579 99.112C173.597 99.4107 172.829 99.88 172.275 100.52C171.592 101.245 171.08 101.907 170.739 102.504C170.44 103.101 170.248 103.848 170.163 104.744C170.632 104.744 171.08 104.765 171.507 104.808C171.933 104.851 172.339 104.893 172.723 104.936C174.6 105.107 176.008 105.192 176.947 105.192C178.824 105.192 180.253 104.915 181.235 104.36C182.259 103.805 182.771 103.059 182.771 102.12C182.771 101.224 182.195 100.413 181.043 99.688C179.933 98.9627 178.76 98.6 177.523 98.6ZM32.84 162.48C33.48 163.248 33.928 163.867 34.184 164.336C34.44 164.805 34.568 165.253 34.568 165.68C34.568 166.192 34.2267 166.789 33.544 167.472C32.904 168.155 32.264 168.496 31.624 168.496C30.7707 168.496 30.088 168.368 29.576 168.112C29.064 167.856 28.6373 167.451 28.296 166.896C27.6133 165.872 26.7813 164.997 25.8 164.272C24.8187 163.504 23.2827 163.12 21.192 163.12C19.4 163.12 17.352 163.525 15.048 164.336C12.7867 165.147 11.1653 166.149 10.184 167.344C9.33067 168.411 8.584 170.032 7.944 172.208C7.34667 174.384 7.048 176.496 7.048 178.544C7.048 181.019 7.58133 183.301 8.648 185.392C9.75733 187.44 11.336 189.083 13.384 190.32C15.4747 191.557 17.9707 192.176 20.872 192.176C22.4507 192.176 24.072 191.877 25.736 191.28C27.4427 190.64 28.9147 189.616 30.152 188.208H30.088C30.856 187.397 31.816 186.992 32.968 186.992C33.6507 186.992 34.2907 187.291 34.888 187.888C35.528 188.485 35.848 189.083 35.848 189.68C35.848 190.32 35.7413 190.896 35.528 191.408C35.3573 191.877 35.016 192.411 34.504 193.008C32.7547 194.971 30.6853 196.315 28.296 197.04C25.9067 197.765 23.048 198.128 19.72 198.128C16.776 198.128 13.7893 197.424 10.76 196.016C7.77333 194.608 5.46933 192.901 3.848 190.896C2.99467 189.659 2.16267 187.888 1.352 185.584C0.584 183.237 0.2 181.339 0.2 179.888C0.2 176.176 0.754667 172.656 1.864 169.328C3.016 165.957 4.72267 163.269 6.984 161.264C8.47733 159.899 10.632 158.875 13.448 158.192C16.264 157.509 18.8453 157.168 21.192 157.168C24.0507 157.168 26.2907 157.573 27.912 158.384C29.576 159.152 31.2187 160.517 32.84 162.48ZM41.005 184.432C41.005 182.811 41.3037 181.189 41.901 179.568C42.4983 177.904 43.2877 176.389 44.269 175.024C45.2503 173.659 46.8077 172.549 48.941 171.696C51.0743 170.8 52.973 170.352 54.637 170.352C56.3437 170.352 58.0717 170.587 59.821 171.056C61.613 171.525 62.8503 172.251 63.533 173.232C65.1117 175.451 65.901 177.627 65.901 179.76C65.901 180.912 65.645 181.893 65.133 182.704C64.6637 183.515 63.981 184.389 63.085 185.328C62.3597 186.096 61.2077 186.608 59.629 186.864C58.093 187.12 56.557 187.248 55.021 187.248C54.0397 187.248 52.845 187.163 51.437 186.992C50.029 186.779 48.6637 186.523 47.341 186.224C47.4263 187.077 47.6397 187.909 47.981 188.72C48.3223 189.531 48.7277 190.149 49.197 190.576C50.0503 191.387 50.925 191.899 51.821 192.112C52.7597 192.325 53.9543 192.432 55.405 192.432C56.941 192.432 58.3703 192.176 59.693 191.664C60.7597 191.28 61.6343 191.088 62.317 191.088C63.1277 191.088 63.7463 191.344 64.173 191.856C64.5997 192.325 64.813 192.944 64.813 193.712C64.813 194.779 64.1943 195.653 62.957 196.336C61.7197 197.019 60.2903 197.531 58.669 197.872C57.0903 198.171 55.8103 198.32 54.829 198.32C52.8237 198.32 50.8823 197.957 49.005 197.232C47.1277 196.507 45.5703 195.483 44.333 194.16C43.309 192.965 42.4983 191.536 41.901 189.872C41.3037 188.165 41.005 186.352 41.005 184.432ZM54.957 175.792C54.0183 175.792 53.0797 175.984 52.141 176.368C51.2023 176.709 50.4343 177.2 49.837 177.84C49.069 178.651 48.5357 179.312 48.237 179.824C47.981 180.293 47.8103 180.955 47.725 181.808C48.7917 182.149 51.0103 182.32 54.381 182.32C56.2157 182.32 57.6237 182.043 58.605 181.488C59.629 180.933 60.141 180.208 60.141 179.312C60.141 178.416 59.5863 177.605 58.477 176.88C57.3677 176.155 56.1943 175.792 54.957 175.792ZM101.201 193.072C101.414 193.157 101.756 193.264 102.225 193.392C102.694 193.52 103.036 193.648 103.249 193.776C103.462 193.904 103.569 194.096 103.569 194.352C103.612 195.376 103.228 196.229 102.417 196.912C101.649 197.552 100.732 197.872 99.665 197.872C98.001 197.872 96.6997 197.424 95.761 196.528C94.8223 195.632 94.1397 194.267 93.713 192.432C93.5423 191.707 93.457 190.704 93.457 189.424C93.457 188.699 93.4997 187.525 93.585 185.904C93.6703 184.197 93.713 182.832 93.713 181.808C93.713 180.315 93.2863 179.013 92.433 177.904C91.6223 176.752 90.4703 176.176 88.977 176.176C88.081 176.176 87.1423 176.453 86.161 177.008C85.1797 177.52 84.497 178.16 84.113 178.928C83.473 180.165 83.025 181.509 82.769 182.96C82.2997 185.52 82.065 188.187 82.065 190.96C82.065 192.283 82.0863 193.307 82.129 194.032C82.129 194.203 82.129 194.544 82.129 195.056C82.1717 195.525 82.129 195.973 82.001 196.4C81.9157 196.784 81.745 197.147 81.489 197.488C81.2757 197.701 80.9343 197.872 80.465 198C80.0383 198.171 79.633 198.256 79.249 198.256C78.6517 198.256 77.905 198 77.009 197.488C76.113 196.976 75.601 196.4 75.473 195.76L75.409 194.672C75.409 194.288 75.4517 193.84 75.537 193.328C76.049 190.341 76.305 187.739 76.305 185.52C76.305 184.539 76.2837 183.771 76.241 183.216L76.177 180.208C76.177 179.184 75.921 178.203 75.409 177.264C74.897 176.283 74.2997 175.792 73.617 175.792C73.4037 175.792 73.105 175.877 72.721 176.048C72.337 176.176 72.017 176.24 71.761 176.24C71.3343 176.24 70.865 176.027 70.353 175.6C69.8837 175.173 69.649 174.725 69.649 174.256C69.649 173.36 69.9477 172.635 70.545 172.08C71.185 171.568 71.8037 171.163 72.401 170.864C73.041 170.565 73.7663 170.416 74.577 170.416C75.2597 170.416 75.8143 170.48 76.241 170.608C76.6677 170.736 77.2437 171.013 77.969 171.44C78.353 171.653 78.801 172.123 79.313 172.848C79.825 173.573 80.2517 174.597 80.593 175.92C81.7023 173.872 83.0677 172.443 84.689 171.632C86.353 170.779 88.465 170.352 91.025 170.352C92.0063 170.352 93.0517 170.672 94.161 171.312C95.313 171.952 96.2943 172.699 97.105 173.552C97.873 174.491 98.513 175.664 99.025 177.072C99.537 178.437 99.793 179.675 99.793 180.784C99.793 181.424 99.7503 182.469 99.665 183.92C99.537 185.072 99.473 186.288 99.473 187.568C99.473 190.555 100.049 192.389 101.201 193.072ZM108.205 175.728C107.607 175.643 107.117 175.408 106.733 175.024C106.391 174.597 106.221 174.085 106.221 173.488C106.221 172.72 106.519 172.08 107.117 171.568C107.245 171.44 107.458 171.333 107.757 171.248C108.055 171.12 108.29 171.013 108.461 170.928C109.399 170.629 109.997 170.395 110.253 170.224C111.234 169.627 111.895 168.645 112.237 167.28C112.578 165.659 112.791 164.549 112.877 163.952C112.962 163.013 113.261 162.309 113.773 161.84C114.327 161.328 115.01 161.072 115.821 161.072C116.887 161.072 117.634 161.349 118.061 161.904C118.487 162.459 118.701 163.483 118.701 164.976C118.701 166.939 118.231 168.795 117.293 170.544C117.89 170.544 118.871 170.501 120.237 170.416C122.285 170.331 123.714 170.288 124.525 170.288C125.25 170.288 125.869 170.48 126.381 170.864C126.935 171.205 127.213 171.717 127.213 172.4C127.213 174.021 126.466 174.981 124.973 175.28C123.607 175.664 121.133 175.899 117.549 175.984C117.25 180.165 117.101 183.472 117.101 185.904C117.101 187.397 117.165 188.464 117.293 189.104C117.549 190.427 117.975 191.408 118.573 192.048C119.213 192.645 120.151 192.944 121.389 192.944C121.986 192.944 122.882 192.795 124.077 192.496C124.802 192.283 125.378 192.176 125.805 192.176C126.359 192.176 126.786 192.368 127.085 192.752C127.383 193.136 127.533 193.648 127.533 194.288C127.533 195.44 126.786 196.4 125.293 197.168C123.799 197.893 122.029 198.256 119.981 198.256C118.701 198.256 117.442 197.957 116.205 197.36C114.967 196.72 113.922 195.952 113.069 195.056C112.898 194.971 112.642 194.501 112.301 193.648C112.002 192.795 111.703 191.856 111.405 190.832C111.277 190.32 111.213 189.083 111.213 187.12C111.213 185.243 111.341 182 111.597 177.392L111.661 175.984C111.362 175.984 110.807 175.963 109.997 175.92C109.186 175.835 108.589 175.771 108.205 175.728ZM131.502 183.344C131.502 180.741 132.078 178.587 133.23 176.88C134.382 175.131 135.982 173.488 138.03 171.952C138.627 171.525 139.63 171.163 141.038 170.864C142.446 170.523 143.683 170.352 144.75 170.352C146.03 170.352 147.374 170.629 148.782 171.184C150.233 171.696 151.406 172.293 152.302 172.976C153.881 174.128 154.969 175.472 155.566 177.008C156.163 178.501 156.462 180.293 156.462 182.384C156.462 183.28 155.95 184.155 154.926 185.008C153.945 185.819 152.878 186.224 151.726 186.224L149.294 186.16C148.057 186.16 146.286 186.203 143.982 186.288L142.638 186.352C141.699 186.437 140.995 186.48 140.526 186.48C139.843 186.48 138.905 186.395 137.71 186.224C137.881 188.229 138.627 189.808 139.95 190.96C141.273 192.069 142.702 192.624 144.238 192.624C146.926 192.624 148.803 192.091 149.87 191.024C150.766 190.384 151.363 189.979 151.662 189.808C151.961 189.637 152.43 189.552 153.07 189.552C153.753 189.552 154.35 189.872 154.862 190.512C155.374 191.152 155.63 191.792 155.63 192.432C155.63 193.157 155.182 193.904 154.286 194.672C153.433 195.397 152.259 196.165 150.766 196.976C149.955 197.317 148.846 197.616 147.438 197.872C146.03 198.128 144.857 198.256 143.918 198.256C142.425 198.256 140.761 197.829 138.926 196.976C137.091 196.08 135.726 195.099 134.83 194.032C133.934 192.965 133.145 191.451 132.462 189.488C131.822 187.525 131.502 185.477 131.502 183.344ZM144.238 181.616C147.267 181.616 149.486 181.509 150.894 181.296C150.809 180.059 150.425 179.056 149.742 178.288C149.059 177.477 148.121 176.795 146.926 176.24C146.542 176.069 146.201 175.941 145.902 175.856C145.603 175.771 145.262 175.728 144.878 175.728C142.915 175.728 141.251 176.261 139.886 177.328C138.563 178.395 137.774 179.76 137.518 181.424C139.651 181.552 141.891 181.616 144.238 181.616ZM171.413 195.44C171.328 196.165 171.029 196.805 170.517 197.36C170.005 197.915 169.344 198.192 168.533 198.192C167.253 198.192 166.314 197.957 165.717 197.488C165.12 196.976 164.821 196.059 164.821 194.736C164.821 192.944 164.928 190.981 165.141 188.848C165.312 186.373 165.397 184.475 165.397 183.152C165.397 182.469 165.354 181.616 165.269 180.592C165.184 179.653 165.141 178.949 165.141 178.48C165.013 177.755 164.714 177.179 164.245 176.752C163.818 176.325 163.136 175.963 162.197 175.664C161.813 175.493 161.493 175.216 161.237 174.832C160.981 174.405 160.853 174.021 160.853 173.68C160.853 172.699 161.237 171.952 162.005 171.44C162.773 170.928 163.712 170.672 164.821 170.672C166.058 170.672 167.125 171.099 168.021 171.952C168.917 172.805 169.6 173.872 170.069 175.152C171.05 173.744 172.245 172.613 173.653 171.76C175.104 170.907 176.512 170.48 177.877 170.48C179.626 170.48 181.098 170.779 182.293 171.376C183.53 171.931 184.149 172.912 184.149 174.32C184.149 175.131 183.786 175.984 183.061 176.88C182.378 177.733 181.674 178.16 180.949 178.16C180.394 178.16 179.733 177.904 178.965 177.392C178.666 177.179 178.325 177.008 177.941 176.88C177.6 176.709 177.237 176.624 176.853 176.624C176.17 176.624 175.53 176.731 174.933 176.944C174.336 177.157 173.93 177.413 173.717 177.712C173.034 178.779 172.522 179.739 172.181 180.592C171.882 181.445 171.733 182.363 171.733 183.344C171.733 184.069 171.712 184.645 171.669 185.072L171.605 188.72L171.669 191.152C171.669 192.944 171.584 194.373 171.413 195.44Z"
                                                                                                                                       fill="white" />
            </svg>